subject11_noload_free_trial03_ground_reaction
version=1
nRows=21
nColumns=19
inDegrees=no
endheader
time	ground_force_r_vx	ground_force_r_vy	ground_force_r_vz	ground_force_r_px	ground_force_r_py	ground_force_r_pz	ground_torque_r_x	ground_torque_r_y	ground_torque_r_z	ground_force_l_vx	ground_force_l_vy	ground_force_l_vz	ground_force_l_px	ground_force_l_py	ground_force_l_pz	ground_torque_l_x	ground_torque_l_y	ground_torque_l_z
      1.78000000	    -12.29273300	    614.60724900	    -24.92013400	      1.60145600	      0.00000000	     -0.17837800	      0.00000000	     -1.83131000	      0.00000000	      0.00000000	      0.00000000	      0.00000000	      1.97286900	      0.00000000	     -3.03080900	      0.00000000	      0.00000000	      0.00000000
      1.79000000	     -8.51236700	    615.97440900	    -25.57183800	      1.60514100	      0.00000000	     -0.17804800	      0.00000000	     -1.60537400	      0.00000000	      0.00000000	      0.00000000	      0.00000000	      2.18704600	      0.00000000	     -3.55869700	      0.00000000	      0.00000000	      0.00000000
      1.80000000	     -4.63145900	    620.28005000	    -26.53704500	      1.60865000	      0.00000000	     -0.17772000	      0.00000000	     -1.33349800	      0.00000000	      0.00000000	      0.00000000	      0.00000000	      2.43067100	      0.00000000	     -4.15069000	      0.00000000	      0.00000000	      0.00000000
      1.81000000	     -0.43919600	    627.48785800	    -27.68645700	      1.61200900	      0.00000000	     -0.17741400	      0.00000000	     -1.00451600	      0.00000000	      0.00000000	      0.00000000	      0.00000000	      2.70560400	      0.00000000	     -4.81044900	      0.00000000	      0.00000000	      0.00000000
      1.82000000	      4.23762500	    637.74382800	    -28.95074400	      1.61515500	      0.00000000	     -0.17713800	      0.00000000	     -0.60821000	      0.00000000	      0.00000000	      0.00000000	      0.00000000	      3.01370600	      0.00000000	     -5.54163600	      0.00000000	      0.00000000	      0.00000000
      1.83000000	      9.46924800	    651.27272900	    -30.31452000	      1.61812000	      0.00000000	     -0.17689400	      0.00000000	     -0.17773800	      0.00000000	      0.00000000	      0.00000000	      0.00000000	      3.35683500	      0.00000000	     -6.34791200	      0.00000000	      0.00000000	      0.00000000
      1.84000000	     15.25954400	    668.34254700	    -31.77506900	      1.62096500	      0.00000000	     -0.17669000	      0.00000000	      0.25970500	      0.00000000	      0.00000000	      0.00000000	      0.00000000	      3.73685200	      0.00000000	     -7.23293800	      0.00000000	      0.00000000	      0.00000000
      1.85000000	     21.56506800	    689.09956400	    -33.32035100	      1.62375700	      0.00000000	     -0.17653700	      0.00000000	      0.68711700	      0.00000000	      0.00000000	      0.00000000	      0.00000000	      4.15561600	      0.00000000	     -8.20037600	      0.00000000	      0.00000000	      0.00000000
      1.86000000	     28.22347300	    713.24981600	    -34.93025800	      1.62659500	      0.00000000	     -0.17642800	      0.00000000	      1.08701100	      0.00000000	      0.00000000	      0.00000000	      0.00000000	      4.61498700	      0.00000000	     -9.25388800	      0.00000000	      0.00000000	      0.00000000
      1.87000000	     34.95522600	    739.84881600	    -36.57255900	      1.62964800	      0.00000000	     -0.17634700	      0.00000000	      1.44158000	      0.00000000	      0.00000000	      0.00000000	      0.00000000	      5.11682500	      0.00000000	    -10.39713400	      0.00000000	      0.00000000	      0.00000000
      1.88000000	     41.52961200	    767.70360400	    -38.22538700	      1.63299900	      0.00000000	     -0.17629600	      0.00000000	      1.72671300	      0.00000000	      0.00000000	      0.00000000	      0.00000000	      5.66299000	      0.00000000	    -11.63377600	      0.00000000	      0.00000000	      0.00000000
      1.89000000	     47.87311700	    795.62433200	    -39.88478300	      1.63665700	      0.00000000	     -0.17626800	      0.00000000	      1.92313300	      0.00000000	      0.00000000	      0.00000000	      0.00000000	      6.25534100	      0.00000000	    -12.96747600	      0.00000000	      0.00000000	      0.00000000
      1.90000000	     54.03805600	    822.52627700	    -41.50986700	      1.64063100	      0.00000000	     -0.17626000	      0.00000000	      2.01407800	      0.00000000	      0.00000000	      0.00000000	      0.00000000	      6.89573800	      0.00000000	    -14.40189400	      0.00000000	      0.00000000	      0.00000000
      1.91000000	     60.14086100	    847.62222100	    -42.99534500	      1.64489000	      0.00000000	     -0.17629500	      0.00000000	      1.99265000	      0.00000000	      0.00000000	      0.00000000	      0.00000000	      7.58604100	      0.00000000	    -15.94069200	      0.00000000	      0.00000000	      0.00000000
      1.92000000	     66.26756700	    870.46097500	    -44.16575300	      1.64934000	      0.00000000	     -0.17639200	      0.00000000	      1.87084100	      0.00000000	      0.00000000	      0.00000000	      0.00000000	      8.32811000	      0.00000000	    -17.58753200	      0.00000000	      0.00000000	      0.00000000
      1.93000000	     72.47959400	    890.90146900	    -44.79784100	      1.65380700	      0.00000000	     -0.17656900	      0.00000000	      1.70420800	      0.00000000	      0.00000000	      0.00000000	      0.00000000	      9.12380400	      0.00000000	    -19.34607500	      0.00000000	      0.00000000	      0.00000000
      1.94000000	     78.93730500	    908.92664700	    -44.77418800	      1.65812400	      0.00000000	     -0.17685000	      0.00000000	      1.52182300	      0.00000000	      0.00000000	      0.00000000	      0.00000000	      9.97498300	      0.00000000	    -21.21998200	      0.00000000	      0.00000000	      0.00000000
      1.95000000	     85.89751800	    924.23246300	    -44.19927200	      1.66217800	      0.00000000	     -0.17724000	      0.00000000	      1.32518500	      0.00000000	      0.00000000	      0.00000000	      0.00000000	     10.88350700	      0.00000000	    -23.21291500	      0.00000000	      0.00000000	      0.00000000
      1.96000000	     93.43823300	    935.55660000	    -43.35172400	      1.66595000	      0.00000000	     -0.17772700	      0.00000000	      1.11387500	      0.00000000	      0.00000000	      0.00000000	      0.00000000	     11.85123600	      0.00000000	    -25.32853500	      0.00000000	      0.00000000	      0.00000000
      1.97000000	    101.54619000	    940.98580700	    -42.44814800	      1.66949600	      0.00000000	     -0.17828900	      0.00000000	      0.87606800	      0.00000000	      0.00000000	      0.00000000	      0.00000000	     12.88002900	      0.00000000	    -27.57050300	      0.00000000	      0.00000000	      0.00000000
      1.98000000	    110.20297200	    938.80590700	    -41.53829400	      1.67287900	      0.00000000	     -0.17890800	      0.00000000	      0.62151600	      0.00000000	      0.00000000	      0.00000000	      0.00000000	     13.97174600	      0.00000000	    -29.94248100	      0.00000000	      0.00000000	      0.00000000
